# xmcd
#
# Track frame offsets:
#	32342
#	71907
#	87777
#	104862
#	117569
#	132642
#	159524
#	181517
#	200982
#	227884
#
# Disc length: 3106 seconds
#
# Revision: 3
# Processed by: cddbd v1.5.2PL0 Copyright (c) Steve Scherf et al.
# Submitted via: EZCDAudioConverter 2.1.7.1
#
DISCID=9e0a730a
DTITLE=V/A - Real World Notes V02
DYEAR=1996
DGENRE=
TTITLE0=Azukx - Lift [Future Mix]
TTITLE1=Nusrat Fateh Ali Khan and Michael Brook - Crest [New Radio Mix]
TTITLE2=Sheila Chandra - Excerpt From ABoneCroneDrone No. 3
TTITLE3=Francis Bebey - Sunny Crypt
TTITLE4=Kali - Tifi Congo
TTITLE5=Ashkhabad - Bayaty
TTITLE6=Bad Boys Batucada - Rubbadic
TTITLE7=Afro Celt Sound System - Inion/Daughter
TTITLE8=Shooglenifty - Two Fifty To Vigo
TTITLE9=Peter Gabriel - Seven Zero
EXTD=
EXTT0=
EXTT1=
EXTT2=
EXTT3=
EXTT4=
EXTT5=
EXTT6=
EXTT7=
EXTT8=
EXTT9=
PLAYORDER=
